# xmcd
#
# Track frame offsets:
#	150
#	18269
#	30386
#	43385
#	58159
#	71009
#	83207
#	97224
#	111128
#	124983
#	140250
#
# Disc length: 2051 seconds
#
# Revision: 0
# Processed by: cddbd v1.5.1PL2 Copyright (c) Steve Scherf et al.
# Submitted via: dBpowerAMP V4.0
#
DISCID=9c08010b
DTITLE=Charles Brown - Trouble Blues
DYEAR=2005
DGENRE=Blues
TTITLE0=Driftin' Blues
TTITLE1=Trouble Blues
TTITLE2=Rockin' Blues
TTITLE3=Baby Let Me Hold Your Hand
TTITLE4=Big Legged Woman
TTITLE5=Livin in Misery
TTITLE6=Black Night
TTITLE7=It's Getting To Be Evening
TTITLE8=Let The Sunshine In My Life
TTITLE9=Counting My Tears
TTITLE10=I Wan A G.I.R.L.
EXTD=
EXTT0=
EXTT1=
EXTT2=
EXTT3=
EXTT4=
EXTT5=
EXTT6=
EXTT7=
EXTT8=
EXTT9=
EXTT10=
PLAYORDER=
